<?xml version="1.0" encoding="UTF-8"?>
<!DOCTYPE svg PUBLIC "-//W3C//DTD SVG 1.1//EN" "http://www.w3.org/Graphics/SVG/1.1/DTD/svg11.dtd">
<svg xmlns="http://www.w3.org/2000/svg" version="1.1" width="192px" height="192px" style="shape-rendering:geometricPrecision; text-rendering:geometricPrecision; image-rendering:optimizeQuality; fill-rule:evenodd; clip-rule:evenodd" xmlns:xlink="http://www.w3.org/1999/xlink">
<g><path style="opacity:0.053" fill="#f6fbfc" d="M 67.5,-0.5 C 71.1667,-0.5 74.8333,-0.5 78.5,-0.5C 72.3125,1.29824 65.9792,2.96491 59.5,4.5C 62.3953,3.20128 65.062,1.53462 67.5,-0.5 Z"/></g>
<g><path style="opacity:0.01" fill="#f4fbfb" d="M 114.5,-0.5 C 116.167,-0.5 117.833,-0.5 119.5,-0.5C 121.5,0.5 123.5,1.5 125.5,2.5C 121.573,2.07431 117.907,1.07431 114.5,-0.5 Z"/></g>
<g><path style="opacity:0.996" fill="#fbfbf9" d="M 123.5,4.5 C 124.93,5.53747 126.597,6.20414 128.5,6.5C 167.768,22.8472 188.101,52.3472 189.5,95C 187.951,139.296 166.618,169.462 125.5,185.5C 124.209,185.263 123.209,185.596 122.5,186.5C 102.744,191.993 83.0771,191.66 63.5,185.5C 23.2025,168.289 2.20252,137.623 0.5,93.5C 3.28168,50.0944 24.9483,20.5944 65.5,5C 84.7887,-0.831039 104.122,-0.997706 123.5,4.5 Z"/></g>
<g><path style="opacity:0.863" fill="#a2d8dd" d="M 125.5,2.5 C 128.542,2.73292 131.208,3.73292 133.5,5.5C 131.488,4.98617 129.488,4.8195 127.5,5C 128.056,5.38258 128.389,5.88258 128.5,6.5C 126.597,6.20414 124.93,5.53747 123.5,4.5C 125.993,4.86932 126.66,4.20266 125.5,2.5 Z"/></g>
<g><path style="opacity:0.008" fill="#f2fafb" d="M 133.5,5.5 C 136.754,5.79362 139.421,7.12695 141.5,9.5C 138.515,8.67433 135.849,7.341 133.5,5.5 Z"/></g>
<g><path style="opacity:1" fill="#fac37d" d="M 86.5,7.5 C 87.5676,8.43448 88.901,8.76781 90.5,8.5C 86.6643,9.37766 82.6643,10.0443 78.5,10.5C 78.1583,9.66175 77.4916,9.32842 76.5,9.5C 79.6267,8.41925 82.9601,7.75258 86.5,7.5 Z"/></g>
<g><path style="opacity:1" fill="#fefefd" d="M 90.5,8.5 C 136.514,9.36034 166.347,31.6937 180,75.5C 187.009,112.482 175.842,142.648 146.5,166C 110.476,188.813 75.1426,187.813 40.5,163C 22.6951,147.892 12.3618,128.725 9.5,105.5C 9.5,99.1667 9.5,92.8333 9.5,86.5C 13.9418,52.888 31.6084,29.0547 62.5,15C 67.7127,12.9835 73.046,11.4835 78.5,10.5C 82.6643,10.0443 86.6643,9.37766 90.5,8.5 Z"/></g>
<g><path style="opacity:0.031" fill="#eaf7f8" d="M 48.5,9.5 C 48.0269,10.9063 47.0269,11.573 45.5,11.5C 45.9731,10.0937 46.9731,9.42702 48.5,9.5 Z"/></g>
<g><path style="opacity:0.01" fill="#f3fafb" d="M 145.5,11.5 C 147.027,11.427 148.027,12.0937 148.5,13.5C 146.973,13.573 145.973,12.9063 145.5,11.5 Z"/></g>
<g><path style="opacity:0.557" fill="#56b9c3" d="M 133.5,5.5 C 135.849,7.341 138.515,8.67433 141.5,9.5C 143.153,9.6596 144.486,10.3263 145.5,11.5C 145.973,12.9063 146.973,13.573 148.5,13.5C 155.279,17.5574 161.279,22.5574 166.5,28.5C 167.08,30.7488 168.413,32.4154 170.5,33.5C 171.08,35.7488 172.413,37.4154 174.5,38.5C 174.427,40.0269 175.094,41.0269 176.5,41.5C 176.427,43.0269 177.094,44.0269 178.5,44.5C 180.924,47.0078 182.59,50.0078 183.5,53.5C 183.166,56.491 184.166,58.8243 186.5,60.5C 186.928,63.7846 187.928,66.7846 189.5,69.5C 189.676,72.7273 190.343,75.7273 191.5,78.5C 191.5,89.8333 191.5,101.167 191.5,112.5C 189.898,116.239 188.898,120.239 188.5,124.5C 188.267,127.542 187.267,130.208 185.5,132.5C 183.707,134.426 182.707,136.759 182.5,139.5C 180.75,140.659 179.75,142.326 179.5,144.5C 173.574,154.943 165.907,164.11 156.5,172C 152.612,174.772 148.612,177.272 144.5,179.5C 142.326,179.75 140.659,180.75 139.5,182.5C 136.759,182.707 134.426,183.707 132.5,185.5C 129.995,186.417 127.662,186.417 125.5,185.5C 166.618,169.462 187.951,139.296 189.5,95C 188.101,52.3472 167.768,22.8472 128.5,6.5C 128.389,5.88258 128.056,5.38258 127.5,5C 129.488,4.8195 131.488,4.98617 133.5,5.5 Z"/></g>
<g><path style="opacity:0.745" fill="#58bac4" d="M 78.5,-0.5 C 90.5,-0.5 102.5,-0.5 114.5,-0.5C 117.907,1.07431 121.573,2.07431 125.5,2.5C 126.66,4.20266 125.993,4.86932 123.5,4.5C 104.122,-0.997706 84.7887,-0.831039 65.5,5C 24.9483,20.5944 3.28168,50.0944 0.5,93.5C 2.20252,137.623 23.2025,168.289 63.5,185.5C 62.8333,185.5 62.5,185.833 62.5,186.5C 61.8333,186.5 61.1667,186.5 60.5,186.5C 55.749,185.29 51.4156,183.29 47.5,180.5C 47.0269,179.094 46.0269,178.427 44.5,178.5C 44.0269,177.094 43.0269,176.427 41.5,176.5C 41.0269,175.094 40.0269,174.427 38.5,174.5C 38.0269,173.094 37.0269,172.427 35.5,172.5C 24.2388,164.291 15.5721,153.958 9.5,141.5C 8.67433,138.515 7.341,135.849 5.5,133.5C 5.59794,131.447 4.93127,129.78 3.5,128.5C 2.26162,126.786 1.59495,124.786 1.5,122.5C 1.43487,119.572 0.768202,116.905 -0.5,114.5C -0.5,100.167 -0.5,85.8333 -0.5,71.5C -0.166667,71.5 0.166667,71.5 0.5,71.5C 2.40532,67.7843 3.73865,63.7843 4.5,59.5C 5.93127,58.2196 6.59794,56.5529 6.5,54.5C 7.40975,51.0078 9.07642,48.0078 11.5,45.5C 12.9063,45.0269 13.573,44.0269 13.5,42.5C 14.9063,42.0269 15.573,41.0269 15.5,39.5C 15.7376,37.5956 16.7376,36.2623 18.5,35.5C 19.9063,35.0269 20.573,34.0269 20.5,32.5C 27.3645,23.6257 35.6979,16.6257 45.5,11.5C 47.0269,11.573 48.0269,10.9063 48.5,9.5C 51.7512,7.04308 55.4179,5.37641 59.5,4.5C 65.9792,2.96491 72.3125,1.29824 78.5,-0.5 Z"/></g>
<g><path style="opacity:0.031" fill="#c9eaed" d="M 166.5,28.5 C 168.587,29.5846 169.92,31.2512 170.5,33.5C 168.413,32.4154 167.08,30.7488 166.5,28.5 Z"/></g>
<g><path style="opacity:0.02" fill="#dbf1f3" d="M 20.5,32.5 C 20.573,34.0269 19.9063,35.0269 18.5,35.5C 18.427,33.9731 19.0937,32.9731 20.5,32.5 Z"/></g>
<g><path style="opacity:0.102" fill="#b8e2e6" d="M 170.5,33.5 C 172.587,34.5846 173.92,36.2512 174.5,38.5C 172.413,37.4154 171.08,35.7488 170.5,33.5 Z"/></g>
<g><path style="opacity:1" fill="#f7b054" d="M 86.5,7.5 C 135.824,6.40304 167.658,29.403 182,76.5C 188.404,125.207 169.237,159.373 124.5,179C 86.1501,190.325 53.6501,181.158 27,151.5C 17.581,139.327 11.4144,125.66 8.5,110.5C 8.21552,108.585 8.54885,106.919 9.5,105.5C 12.3618,128.725 22.6951,147.892 40.5,163C 75.1426,187.813 110.476,188.813 146.5,166C 175.842,142.648 187.009,112.482 180,75.5C 166.347,31.6937 136.514,9.36034 90.5,8.5C 88.901,8.76781 87.5676,8.43448 86.5,7.5 Z"/></g>
<g><path style="opacity:0.024" fill="#ceecef" d="M 174.5,38.5 C 175.906,38.9731 176.573,39.9731 176.5,41.5C 175.094,41.0269 174.427,40.0269 174.5,38.5 Z"/></g>
<g><path style="opacity:0.027" fill="#ceebef" d="M 15.5,39.5 C 15.573,41.0269 14.9063,42.0269 13.5,42.5C 13.427,40.9731 14.0937,39.9731 15.5,39.5 Z"/></g>
<g><path style="opacity:1" fill="#13bbbf" d="M 33.5,40.5 C 38.1667,40.5 42.8333,40.5 47.5,40.5C 47.3335,49.8393 47.5002,59.1726 48,68.5C 57.2014,60.9632 67.7014,58.4632 79.5,61C 95.0341,65.2335 103.034,75.4002 103.5,91.5C 101.619,116.208 88.2854,127.374 63.5,125C 57.5142,123.592 52.3476,120.758 48,116.5C 47.5034,118.81 47.3367,121.143 47.5,123.5C 42.8333,123.5 38.1667,123.5 33.5,123.5C 33.5,95.8333 33.5,68.1667 33.5,40.5 Z"/></g>
<g><path style="opacity:0.02" fill="#d6eff2" d="M 176.5,41.5 C 177.906,41.9731 178.573,42.9731 178.5,44.5C 177.094,44.0269 176.427,43.0269 176.5,41.5 Z"/></g>
<g><path style="opacity:0.024" fill="#d6eff1" d="M 13.5,42.5 C 13.573,44.0269 12.9063,45.0269 11.5,45.5C 11.427,43.9731 12.0937,42.9731 13.5,42.5 Z"/></g>
<g><path style="opacity:0.012" fill="#f9fcfd" d="M 6.5,54.5 C 6.59794,56.5529 5.93127,58.2196 4.5,59.5C 4.40206,57.4471 5.06873,55.7804 6.5,54.5 Z"/></g>
<g><path style="opacity:0.133" fill="#a5d9de" d="M 183.5,53.5 C 185.293,55.4261 186.293,57.7594 186.5,60.5C 184.166,58.8243 183.166,56.491 183.5,53.5 Z"/></g>
<g><path style="opacity:1" fill="#f7b055" d="M 76.5,9.5 C 77.4916,9.32842 78.1583,9.66175 78.5,10.5C 73.046,11.4835 67.7127,12.9835 62.5,15C 31.6084,29.0547 13.9418,52.888 9.5,86.5C 8.83333,92.5 8.16667,98.5 7.5,104.5C 5.78774,61.4067 24.4544,30.9067 63.5,13C 67.7155,11.3158 72.0488,10.1491 76.5,9.5 Z"/></g>
<g><path style="opacity:0.009" fill="#f9fcfd" d="M 4.5,59.5 C 3.73865,63.7843 2.40532,67.7843 0.5,71.5C 0.860597,67.0845 2.19393,63.0845 4.5,59.5 Z"/></g>
<g><path style="opacity:1" fill="#f9a743" d="M 156.5,76.5 C 156.369,77.3764 156.702,78.0431 157.5,78.5C 158.491,74.5546 158.824,70.5546 158.5,66.5C 160.167,66.5 161.833,66.5 163.5,66.5C 163.667,86.8361 163.5,107.169 163,127.5C 159.593,145.47 148.759,152.97 130.5,150C 121.273,148.389 114.607,143.389 110.5,135C 111.371,133.231 112.704,132.564 114.5,133C 121.265,143.879 130.932,147.879 143.5,145C 153.047,141.602 157.714,134.769 157.5,124.5C 158.815,119.32 158.815,113.986 157.5,108.5C 156.893,108.624 156.56,108.957 156.5,109.5C 152.831,115.514 147.498,119.347 140.5,121C 124.42,123.542 113.92,117.042 109,101.5C 105.868,75.9691 117.034,64.1357 142.5,66C 148.483,67.8254 153.15,71.3254 156.5,76.5 Z"/></g>
<g><path style="opacity:0.011" fill="#fafdfd" d="M 186.5,60.5 C 188.472,63.0836 189.472,66.0836 189.5,69.5C 187.928,66.7846 186.928,63.7846 186.5,60.5 Z"/></g>
<g><path style="opacity:1" fill="#fffdfb" d="M 131.5,69.5 C 150.118,69.6174 158.952,78.9507 158,97.5C 153.662,112.931 143.495,119.097 127.5,116C 116.274,109.347 111.774,99.5139 114,86.5C 117.118,77.8798 122.951,72.2131 131.5,69.5 Z"/></g>
<g><path style="opacity:1" fill="#fcc88a" d="M 158.5,66.5 C 158.824,70.5546 158.491,74.5546 157.5,78.5C 156.702,78.0431 156.369,77.3764 156.5,76.5C 157.167,73.1667 157.833,69.8333 158.5,66.5 Z"/></g>
<g><path style="opacity:0.009" fill="#fbfdfd" d="M 189.5,69.5 C 190.167,70.5 190.833,71.5 191.5,72.5C 191.5,74.5 191.5,76.5 191.5,78.5C 190.343,75.7273 189.676,72.7273 189.5,69.5 Z"/></g>
<g><path style="opacity:1" fill="#fcfefe" d="M 62.5,72.5 C 85.8067,72.9487 93.3067,83.9487 85,105.5C 82.441,108.531 79.2743,110.698 75.5,112C 64.9476,114.239 55.781,111.739 48,104.5C 47.3333,96.5 47.3333,88.5 48,80.5C 52.4076,76.8833 57.241,74.2166 62.5,72.5 Z"/></g>
<g><path style="opacity:1" fill="#fcdfba" d="M 9.5,86.5 C 9.5,92.8333 9.5,99.1667 9.5,105.5C 8.54885,106.919 8.21552,108.585 8.5,110.5C 7.53862,108.735 7.20528,106.735 7.5,104.5C 8.16667,98.5 8.83333,92.5 9.5,86.5 Z"/></g>
<g><path style="opacity:1" fill="#fbc077" d="M 156.5,109.5 C 156.56,108.957 156.893,108.624 157.5,108.5C 158.815,113.986 158.815,119.32 157.5,124.5C 157.821,119.305 157.487,114.305 156.5,109.5 Z"/></g>
<g><path style="opacity:0.013" fill="#f9fcfd" d="M -0.5,114.5 C 0.768202,116.905 1.43487,119.572 1.5,122.5C 0.833333,121.5 0.166667,120.5 -0.5,119.5C -0.5,117.833 -0.5,116.167 -0.5,114.5 Z"/></g>
<g><path style="opacity:0.008" fill="#f7fcfc" d="M 191.5,112.5 C 191.5,114.167 191.5,115.833 191.5,117.5C 190.651,119.888 189.651,122.221 188.5,124.5C 188.898,120.239 189.898,116.239 191.5,112.5 Z"/></g>
<g><path style="opacity:0.008" fill="#eff9fa" d="M 3.5,128.5 C 4.93127,129.78 5.59794,131.447 5.5,133.5C 4.06873,132.22 3.40206,130.553 3.5,128.5 Z"/></g>
<g><path style="opacity:0.008" fill="#eef8f9" d="M 185.5,132.5 C 185.293,135.241 184.293,137.574 182.5,139.5C 182.707,136.759 183.707,134.426 185.5,132.5 Z"/></g>
<g><path style="opacity:0.008" fill="#f1f9fa" d="M 5.5,133.5 C 7.341,135.849 8.67433,138.515 9.5,141.5C 7.12695,139.421 5.79362,136.754 5.5,133.5 Z"/></g>
<g><path style="opacity:0.008" fill="#ecf7f8" d="M 182.5,139.5 C 182.25,141.674 181.25,143.341 179.5,144.5C 179.75,142.326 180.75,140.659 182.5,139.5 Z"/></g>
<g><path style="opacity:0.02" fill="#e8f6f7" d="M 35.5,172.5 C 37.0269,172.427 38.0269,173.094 38.5,174.5C 36.9731,174.573 35.9731,173.906 35.5,172.5 Z"/></g>
<g><path style="opacity:0.02" fill="#ccebee" d="M 38.5,174.5 C 40.0269,174.427 41.0269,175.094 41.5,176.5C 39.9731,176.573 38.9731,175.906 38.5,174.5 Z"/></g>
<g><path style="opacity:0.02" fill="#d5eef1" d="M 41.5,176.5 C 43.0269,176.427 44.0269,177.094 44.5,178.5C 42.9731,178.573 41.9731,177.906 41.5,176.5 Z"/></g>
<g><path style="opacity:0.008" fill="#eaf7f8" d="M 44.5,178.5 C 46.0269,178.427 47.0269,179.094 47.5,180.5C 45.9731,180.573 44.9731,179.906 44.5,178.5 Z"/></g>
<g><path style="opacity:0.008" fill="#ecf7f8" d="M 144.5,179.5 C 143.341,181.25 141.674,182.25 139.5,182.5C 140.659,180.75 142.326,179.75 144.5,179.5 Z"/></g>
<g><path style="opacity:0.008" fill="#ebf7f8" d="M 139.5,182.5 C 137.574,184.293 135.241,185.293 132.5,185.5C 134.426,183.707 136.759,182.707 139.5,182.5 Z"/></g>
<g><path style="opacity:0.384" fill="#a5d8de" d="M 122.5,186.5 C 123.209,185.596 124.209,185.263 125.5,185.5C 127.662,186.417 129.995,186.417 132.5,185.5C 130.208,187.267 127.542,188.267 124.5,188.5C 124.5,187.167 123.833,186.5 122.5,186.5 Z"/></g>
<g><path style="opacity:0.011" fill="#fafdfd" d="M 60.5,186.5 C 61.1667,186.5 61.8333,186.5 62.5,186.5C 64.9872,187.323 67.3206,188.323 69.5,189.5C 66.0836,189.472 63.0836,188.472 60.5,186.5 Z"/></g>
<g><path style="opacity:0.243" fill="#30aeba" d="M 62.5,186.5 C 62.5,185.833 62.8333,185.5 63.5,185.5C 83.0771,191.66 102.744,191.993 122.5,186.5C 123.833,186.5 124.5,187.167 124.5,188.5C 120.239,188.898 116.239,189.898 112.5,191.5C 101.167,191.5 89.8333,191.5 78.5,191.5C 75.7273,190.343 72.7273,189.676 69.5,189.5C 67.3206,188.323 64.9872,187.323 62.5,186.5 Z"/></g>
<g><path style="opacity:0.01" fill="#fafdfd" d="M 69.5,189.5 C 72.7273,189.676 75.7273,190.343 78.5,191.5C 76.5,191.5 74.5,191.5 72.5,191.5C 71.5,190.833 70.5,190.167 69.5,189.5 Z"/></g>
<g><path style="opacity:0.014" fill="#f7fcfc" d="M 124.5,188.5 C 122.221,189.651 119.888,190.651 117.5,191.5C 115.833,191.5 114.167,191.5 112.5,191.5C 116.239,189.898 120.239,188.898 124.5,188.5 Z"/></g>
</svg>
