<?xml version="1.0" encoding="UTF-8"?>
<!DOCTYPE svg PUBLIC "-//W3C//DTD SVG 1.1//EN" "http://www.w3.org/Graphics/SVG/1.1/DTD/svg11.dtd">
<svg xmlns="http://www.w3.org/2000/svg" version="1.1" width="640px" height="588px" style="shape-rendering:geometricPrecision; text-rendering:geometricPrecision; image-rendering:optimizeQuality; fill-rule:evenodd; clip-rule:evenodd" xmlns:xlink="http://www.w3.org/1999/xlink">
<g><path style="opacity:1" fill="#fcfdfe" d="M -0.5,-0.5 C 7.83333,-0.5 16.1667,-0.5 24.5,-0.5C 18.006,2.00335 12.1727,5.67001 7,10.5C 4.10582,15.1554 1.60582,19.8221 -0.5,24.5C -0.5,16.1667 -0.5,7.83333 -0.5,-0.5 Z"/></g>
<g><path style="opacity:1" fill="#92c4fc" d="M 24.5,-0.5 C 221.167,-0.5 417.833,-0.5 614.5,-0.5C 627.523,3.52498 635.856,12.1916 639.5,25.5C 639.5,204.5 639.5,383.5 639.5,562.5C 635.475,575.523 626.808,583.856 613.5,587.5C 576.5,587.5 539.5,587.5 502.5,587.5C 497.594,554.283 487.76,522.616 473,492.5C 467.5,484.333 460.667,477.5 452.5,472C 441.122,466.391 429.622,461.224 418,456.5C 414.306,439.902 407.806,424.569 398.5,410.5C 411.263,397.981 420.763,383.314 427,366.5C 429.075,360.275 430.742,353.941 432,347.5C 433.234,329.534 433.9,311.534 434,293.5C 439.014,273.416 442.514,253.082 444.5,232.5C 442.213,187.737 421.546,154.571 382.5,133C 343.894,114.562 303.561,109.562 261.5,118C 218.525,129.412 192.358,156.912 183,200.5C 175.558,236.368 177.558,271.701 189,306.5C 196.326,327.145 208.326,344.478 225,358.5C 226.318,361.406 226.652,364.406 226,367.5C 200.806,369.12 177.973,377.286 157.5,392C 149.171,398.81 143.505,407.31 140.5,417.5C 141.957,423.257 141.79,428.924 140,434.5C 128.102,442.728 115.935,450.561 103.5,458C 91.3757,470.081 83.8757,484.581 81,501.5C 79.7568,521.134 79.0902,540.8 79,560.5C 78.4495,569.63 77.2828,578.63 75.5,587.5C 58.5,587.5 41.5,587.5 24.5,587.5C 11.2654,582.596 2.93203,573.263 -0.5,559.5C -0.5,381.167 -0.5,202.833 -0.5,24.5C 1.60582,19.8221 4.10582,15.1554 7,10.5C 12.1727,5.67001 18.006,2.00335 24.5,-0.5 Z"/></g>
<g><path style="opacity:1" fill="#fdfefe" d="M 614.5,-0.5 C 622.833,-0.5 631.167,-0.5 639.5,-0.5C 639.5,8.16667 639.5,16.8333 639.5,25.5C 635.856,12.1916 627.523,3.52498 614.5,-0.5 Z"/></g>
<g><path style="opacity:1" fill="#030303" d="M 502.5,587.5 C 500.5,587.5 498.5,587.5 496.5,587.5C 491.257,554.514 481.091,523.181 466,493.5C 461.121,486.287 454.955,480.454 447.5,476C 437.706,471.602 427.872,467.435 418,463.5C 417.199,497.262 404.365,525.429 379.5,548C 378.365,548.749 377.365,548.583 376.5,547.5C 405.683,520.117 416.516,486.784 409,447.5C 405.717,435.962 400.717,425.295 394,415.5C 388.761,421.41 382.928,426.577 376.5,431C 370.036,432.593 363.536,433.76 357,434.5C 359.622,448.044 363.288,461.377 368,474.5C 371.777,492.566 365.61,505.733 349.5,514C 335.615,518.292 321.615,518.625 307.5,515C 265.562,502.564 235.562,476.397 217.5,436.5C 218.289,434.512 219.455,434.179 221,435.5C 238.315,473.488 267.149,497.654 307.5,508C 318.468,509.415 329.468,509.749 340.5,509C 360.726,503.405 368.226,490.239 363,469.5C 359.825,466.657 356.991,463.49 354.5,460C 322.229,456.621 296.729,441.787 278,415.5C 271.364,409.866 265.031,403.866 259,397.5C 254.593,391.854 251.093,385.687 248.5,379C 248.833,378.5 249.167,378 249.5,377.5C 267.772,403.646 292.772,419.146 324.5,424C 339.847,425.886 355.18,425.886 370.5,424C 377.486,420.689 383.653,416.189 389,410.5C 399.196,400.419 408.196,389.419 416,377.5C 427.815,353.556 432.148,328.222 429,301.5C 432.968,281.523 435.468,261.356 436.5,241C 436.772,223.426 433.105,206.76 425.5,191C 423.5,190.333 421.5,190.333 419.5,191C 401.239,206.316 380.906,209.649 358.5,201C 348.513,195.505 338.179,190.838 327.5,187C 305.87,181.258 286.537,185.592 269.5,200C 255.247,209.671 248.247,223.171 248.5,240.5C 250.487,254.929 249.487,269.096 245.5,283C 247.073,285.758 247.407,288.592 246.5,291.5C 243.59,285.761 240.09,280.428 236,275.5C 226.774,268.039 216.607,266.539 205.5,271C 195.735,281.072 192.902,292.905 197,306.5C 203.448,324.948 215.948,337.448 234.5,344C 234.833,344.333 235.167,344.667 235.5,345C 234.207,345.49 232.873,345.657 231.5,345.5C 231.667,359.504 231.5,373.504 231,387.5C 229.022,402.934 224.189,417.267 216.5,430.5C 212.403,430.131 210.236,427.798 210,423.5C 208.453,416.855 208.287,410.189 209.5,403.5C 210.086,403.709 210.586,404.043 211,404.5C 211.546,410.351 212.879,416.018 215,421.5C 216.156,422.993 216.99,422.826 217.5,421C 222.44,405.924 225.107,390.424 225.5,374.5C 198.226,373.756 174.726,382.756 155,401.5C 152.148,405.204 149.815,409.204 148,413.5C 147.151,435.014 152.151,455.348 163,474.5C 179.659,502.826 202.492,524.66 231.5,540C 239.864,544.182 248.198,548.349 256.5,552.5C 214.895,540.254 182.061,515.92 158,479.5C 150.681,467.532 145.014,454.866 141,441.5C 126.64,449.845 112.973,459.178 100,469.5C 93.5392,480.001 89.2059,491.335 87,503.5C 85.8031,523.142 85.1365,542.808 85,562.5C 84.5478,570.882 83.7145,579.215 82.5,587.5C 80.1667,587.5 77.8333,587.5 75.5,587.5C 77.2828,578.63 78.4495,569.63 79,560.5C 79.0902,540.8 79.7568,521.134 81,501.5C 83.8757,484.581 91.3757,470.081 103.5,458C 115.935,450.561 128.102,442.728 140,434.5C 141.79,428.924 141.957,423.257 140.5,417.5C 143.505,407.31 149.171,398.81 157.5,392C 177.973,377.286 200.806,369.12 226,367.5C 226.652,364.406 226.318,361.406 225,358.5C 208.326,344.478 196.326,327.145 189,306.5C 177.558,271.701 175.558,236.368 183,200.5C 192.358,156.912 218.525,129.412 261.5,118C 303.561,109.562 343.894,114.562 382.5,133C 421.546,154.571 442.213,187.737 444.5,232.5C 442.514,253.082 439.014,273.416 434,293.5C 433.9,311.534 433.234,329.534 432,347.5C 430.742,353.941 429.075,360.275 427,366.5C 420.763,383.314 411.263,397.981 398.5,410.5C 407.806,424.569 414.306,439.902 418,456.5C 429.622,461.224 441.122,466.391 452.5,472C 460.667,477.5 467.5,484.333 473,492.5C 487.76,522.616 497.594,554.283 502.5,587.5 Z"/></g>
<g><path style="opacity:1" fill="#fdfdfd" d="M 496.5,587.5 C 490.833,587.5 485.167,587.5 479.5,587.5C 479.728,581.95 477.395,577.95 472.5,575.5C 469.613,576.22 467.947,578.053 467.5,581C 468.287,583.099 468.62,585.266 468.5,587.5C 438.167,587.5 407.833,587.5 377.5,587.5C 384.596,585.67 387.43,581.003 386,573.5C 384.042,568.41 381.208,563.91 377.5,560C 375.866,559.506 374.199,559.34 372.5,559.5C 370.515,550.863 367.182,542.863 362.5,535.5C 361.369,537.074 361.202,538.741 362,540.5C 364.269,547.141 366.436,553.808 368.5,560.5C 365.72,564.05 364.886,568.05 366,572.5C 366.193,580.06 369.693,585.06 376.5,587.5C 350.5,587.5 324.5,587.5 298.5,587.5C 298.666,581.824 298.499,576.157 298,570.5C 296.214,569.223 295.048,567.556 294.5,565.5C 295.671,555.949 297.671,546.616 300.5,537.5C 299.178,537.33 298.011,537.663 297,538.5C 294.248,546.927 291.748,555.427 289.5,564C 286.355,565.811 283.855,568.311 282,571.5C 280.809,576.767 280.309,582.101 280.5,587.5C 214.5,587.5 148.5,587.5 82.5,587.5C 83.7145,579.215 84.5478,570.882 85,562.5C 85.1365,542.808 85.8031,523.142 87,503.5C 89.2059,491.335 93.5392,480.001 100,469.5C 112.973,459.178 126.64,449.845 141,441.5C 145.014,454.866 150.681,467.532 158,479.5C 182.061,515.92 214.895,540.254 256.5,552.5C 248.198,548.349 239.864,544.182 231.5,540C 202.492,524.66 179.659,502.826 163,474.5C 152.151,455.348 147.151,435.014 148,413.5C 149.815,409.204 152.148,405.204 155,401.5C 174.726,382.756 198.226,373.756 225.5,374.5C 225.107,390.424 222.44,405.924 217.5,421C 216.99,422.826 216.156,422.993 215,421.5C 212.879,416.018 211.546,410.351 211,404.5C 210.586,404.043 210.086,403.709 209.5,403.5C 208.287,410.189 208.453,416.855 210,423.5C 210.236,427.798 212.403,430.131 216.5,430.5C 224.189,417.267 229.022,402.934 231,387.5C 231.5,373.504 231.667,359.504 231.5,345.5C 232.873,345.657 234.207,345.49 235.5,345C 235.167,344.667 234.833,344.333 234.5,344C 215.948,337.448 203.448,324.948 197,306.5C 192.902,292.905 195.735,281.072 205.5,271C 216.607,266.539 226.774,268.039 236,275.5C 240.09,280.428 243.59,285.761 246.5,291.5C 247.407,288.592 247.073,285.758 245.5,283C 249.487,269.096 250.487,254.929 248.5,240.5C 248.247,223.171 255.247,209.671 269.5,200C 286.537,185.592 305.87,181.258 327.5,187C 338.179,190.838 348.513,195.505 358.5,201C 380.906,209.649 401.239,206.316 419.5,191C 421.5,190.333 423.5,190.333 425.5,191C 433.105,206.76 436.772,223.426 436.5,241C 435.468,261.356 432.968,281.523 429,301.5C 432.148,328.222 427.815,353.556 416,377.5C 408.196,389.419 399.196,400.419 389,410.5C 383.653,416.189 377.486,420.689 370.5,424C 355.18,425.886 339.847,425.886 324.5,424C 292.772,419.146 267.772,403.646 249.5,377.5C 249.167,378 248.833,378.5 248.5,379C 251.093,385.687 254.593,391.854 259,397.5C 265.031,403.866 271.364,409.866 278,415.5C 296.729,441.787 322.229,456.621 354.5,460C 356.991,463.49 359.825,466.657 363,469.5C 368.226,490.239 360.726,503.405 340.5,509C 329.468,509.749 318.468,509.415 307.5,508C 267.149,497.654 238.315,473.488 221,435.5C 219.455,434.179 218.289,434.512 217.5,436.5C 235.562,476.397 265.562,502.564 307.5,515C 321.615,518.625 335.615,518.292 349.5,514C 365.61,505.733 371.777,492.566 368,474.5C 363.288,461.377 359.622,448.044 357,434.5C 363.536,433.76 370.036,432.593 376.5,431C 382.928,426.577 388.761,421.41 394,415.5C 400.717,425.295 405.717,435.962 409,447.5C 416.516,486.784 405.683,520.117 376.5,547.5C 377.365,548.583 378.365,548.749 379.5,548C 404.365,525.429 417.199,497.262 418,463.5C 427.872,467.435 437.706,471.602 447.5,476C 454.955,480.454 461.121,486.287 466,493.5C 481.091,523.181 491.257,554.514 496.5,587.5 Z"/></g>
<g><path style="opacity:1" fill="#050505" d="M 336.5,228.5 C 342.084,227.525 346.917,228.858 351,232.5C 353.364,236.474 352.864,239.974 349.5,243C 335.802,245.008 322.135,247.175 308.5,249.5C 301.552,250.107 300.219,247.94 304.5,243C 313.972,235.351 324.638,230.517 336.5,228.5 Z"/></g>
<g><path style="opacity:1" fill="#060606" d="M 402.5,234.5 C 413.642,233.488 422.475,237.488 429,246.5C 430.885,248.914 431.552,251.581 431,254.5C 429.612,255.554 428.112,255.72 426.5,255C 418.053,251.685 409.387,248.852 400.5,246.5C 398.583,245.166 397.583,243.333 397.5,241C 398.635,238.372 400.302,236.205 402.5,234.5 Z"/></g>
<g><path style="opacity:1" fill="#060606" d="M 315.5,265.5 C 324.805,264.404 331.972,267.738 337,275.5C 337.699,277.074 337.365,278.407 336,279.5C 333.349,276.924 330.182,275.591 326.5,275.5C 327.466,286.379 322.8,290.546 312.5,288C 311.299,287.097 310.465,285.931 310,284.5C 309.824,281.118 309.324,277.785 308.5,274.5C 307.5,275.167 306.5,275.833 305.5,276.5C 304.497,273.965 305.163,271.798 307.5,270C 310.099,268.205 312.766,266.705 315.5,265.5 Z"/></g>
<g><path style="opacity:1" fill="#090909" d="M 390.5,269.5 C 392.213,270.635 392.88,272.302 392.5,274.5C 395.243,273.612 397.91,272.445 400.5,271C 408.405,269.768 413.738,272.935 416.5,280.5C 416,280.833 415.5,281.167 415,281.5C 413.374,280.711 411.874,279.711 410.5,278.5C 411.776,287.214 408.109,292.214 399.5,293.5C 402.077,299.652 404.91,305.652 408,311.5C 408.494,326.861 400.994,335.861 385.5,338.5C 384,338.547 383,337.881 382.5,336.5C 388.399,334.301 393.565,330.967 398,326.5C 400.254,323.572 401.421,320.238 401.5,316.5C 398.067,307.29 394.9,297.957 392,288.5C 390.812,282.222 390.312,275.888 390.5,269.5 Z"/></g>
<g><path style="opacity:1" fill="#101010" d="M 214.5,282.5 C 225.997,281.664 231.664,286.998 231.5,298.5C 229.587,305.017 230.253,311.184 233.5,317C 229.784,317.517 226.95,315.684 225,311.5C 223.848,305.23 223.182,298.897 223,292.5C 222.626,291.584 222.126,290.75 221.5,290C 214.486,287.687 210.652,290.187 210,297.5C 209.333,298.833 208.667,298.833 208,297.5C 207.333,294.5 207.333,291.5 208,288.5C 210.063,286.266 212.229,284.266 214.5,282.5 Z"/></g>
<g><path style="opacity:1" fill="#070707" d="M 333.5,343.5 C 338.701,345.098 343.701,347.265 348.5,350C 357.62,353.191 366.953,355.024 376.5,355.5C 376.703,357.39 376.037,358.89 374.5,360C 358.813,366.427 345.647,362.927 335,349.5C 333.872,347.655 333.372,345.655 333.5,343.5 Z"/></g>
<g><path style="opacity:1" fill="#070707" d="M 182.5,452.5 C 195.747,478.272 213.08,501.105 234.5,521C 239.5,525.167 244.5,529.333 249.5,533.5C 217.411,519.889 195.578,496.223 184,462.5C 183.39,459.173 182.89,455.839 182.5,452.5 Z"/></g>
<g><path style="opacity:1" fill="#070707" d="M 377.5,587.5 C 377.167,587.5 376.833,587.5 376.5,587.5C 369.693,585.06 366.193,580.06 366,572.5C 364.886,568.05 365.72,564.05 368.5,560.5C 366.436,553.808 364.269,547.141 362,540.5C 361.202,538.741 361.369,537.074 362.5,535.5C 367.182,542.863 370.515,550.863 372.5,559.5C 374.199,559.34 375.866,559.506 377.5,560C 381.208,563.91 384.042,568.41 386,573.5C 387.43,581.003 384.596,585.67 377.5,587.5 Z"/></g>
<g><path style="opacity:1" fill="#0b0b0b" d="M 298.5,587.5 C 292.5,587.5 286.5,587.5 280.5,587.5C 280.309,582.101 280.809,576.767 282,571.5C 283.855,568.311 286.355,565.811 289.5,564C 291.748,555.427 294.248,546.927 297,538.5C 298.011,537.663 299.178,537.33 300.5,537.5C 297.671,546.616 295.671,555.949 294.5,565.5C 295.048,567.556 296.214,569.223 298,570.5C 298.499,576.157 298.666,581.824 298.5,587.5 Z"/></g>
<g><path style="opacity:1" fill="#fbfcfe" d="M -0.5,559.5 C 2.93203,573.263 11.2654,582.596 24.5,587.5C 16.1667,587.5 7.83333,587.5 -0.5,587.5C -0.5,578.167 -0.5,568.833 -0.5,559.5 Z"/></g>
<g><path style="opacity:1" fill="#fdfefe" d="M 639.5,562.5 C 639.5,570.833 639.5,579.167 639.5,587.5C 630.833,587.5 622.167,587.5 613.5,587.5C 626.808,583.856 635.475,575.523 639.5,562.5 Z"/></g>
<g><path style="opacity:1" fill="#090909" d="M 479.5,587.5 C 475.833,587.5 472.167,587.5 468.5,587.5C 468.62,585.266 468.287,583.099 467.5,581C 467.947,578.053 469.613,576.22 472.5,575.5C 477.395,577.95 479.728,581.95 479.5,587.5 Z"/></g>
</svg>
